<svg xmlns="http://www.w3.org/2000/svg" width="64" height="64" viewBox="0 0 64 64" aria-hidden="true" role="img">
	<defs>
		<linearGradient id="bgGrad" x1="0%" x2="100%" y1="0%" y2="100%">
			<stop offset="0%" stop-color="#dbeffd" />
			<stop offset="60%" stop-color="#f7e6c8" />
			<stop offset="100%" stop-color="#f0d9b5" />
		</linearGradient>
		<filter id="soft" x="-20%" y="-20%" width="140%" height="140%">
			<feGaussianBlur stdDeviation="2" result="b" />
			<feBlend in="SourceGraphic" in2="b" mode="normal" />
		</filter>
	</defs>

	<!-- Background circle -->
	<circle cx="32" cy="32" r="30" fill="url(#bgGrad)" />

	<!-- Subtle ring -->
	<circle cx="32" cy="32" r="28.2" fill="none" stroke="rgba(255,255,255,0.35)" stroke-width="1.6" />

	<!-- Stylized 'B' monogram -->
	<g transform="translate(0,0)" filter="url(#soft)">
		<path d="M22 42V22h6.6c3.9 0 6.8 1.9 6.8 5.2 0 2.3-1.5 3.9-3.3 4.6 2 0.6 3.6 2.3 3.6 4.9 0 3.9-3.3 6.3-7 6.3H22zM29.4 30.1c1.2 0 2.1-0.6 2.1-1.8 0-1.1-0.9-1.7-2-1.7H26v3.5h3.4zM29.4 40.2c1.6 0 2.7-0.8 2.7-2.2 0-1.3-1.1-2-2.6-2H26v4.2h3.4z" fill="#2b2a28" />
	</g>

	<!-- Dandelion seed motif -->
	<g transform="translate(44,12) rotate(15)">
		<path d="M0 0c0 0 4 2 6 4" stroke="#2b2a28" stroke-width="1.2" fill="none" stroke-linecap="round" stroke-linejoin="round" opacity="0.9" />
		<circle cx="6" cy="4" r="1.6" fill="#2b2a28" />
	</g>
</svg>